<mxfile host="app.diagrams.net" modified="2024-05-18T08:43:03.853Z" agent="Mozilla/5.0 (Windows NT 10.0; Win64; x64) AppleWebKit/537.36 (KHTML, like Gecko) Chrome/123.0.0.0 Safari/537.36" etag="a8A5q8eJznhOKwp5Ll3c" version="24.3.1" type="device">
  <diagram name="PÃ¡gina-1" id="lbE7citb1OzIJMXF_pC4">
    <mxGraphModel dx="1434" dy="738" grid="1" gridSize="10" guides="1" tooltips="1" connect="1" arrows="1" fold="1" page="1" pageScale="1" pageWidth="827" pageHeight="1169" math="0" shadow="0">
      <root>
        <mxCell id="0" />
        <mxCell id="1" parent="0" />
        <mxCell id="J3GhAaIM8ZxZyjc3NXAG-6" value="" style="rounded=0;whiteSpace=wrap;html=1;" vertex="1" parent="1">
          <mxGeometry x="70" y="310" width="670" height="450" as="geometry" />
        </mxCell>
        <mxCell id="J3GhAaIM8ZxZyjc3NXAG-20" style="edgeStyle=orthogonalEdgeStyle;rounded=0;orthogonalLoop=1;jettySize=auto;html=1;entryX=0;entryY=0.5;entryDx=0;entryDy=0;" edge="1" parent="1" source="J3GhAaIM8ZxZyjc3NXAG-1" target="J3GhAaIM8ZxZyjc3NXAG-5">
          <mxGeometry relative="1" as="geometry" />
        </mxCell>
        <mxCell id="J3GhAaIM8ZxZyjc3NXAG-1" value="Client" style="swimlane;fontStyle=0;childLayout=stackLayout;horizontal=1;startSize=26;fillColor=none;horizontalStack=0;resizeParent=1;resizeParentMax=0;resizeLast=0;collapsible=1;marginBottom=0;whiteSpace=wrap;html=1;" vertex="1" parent="1">
          <mxGeometry x="50" y="150" width="140" height="52" as="geometry" />
        </mxCell>
        <mxCell id="J3GhAaIM8ZxZyjc3NXAG-18" style="edgeStyle=orthogonalEdgeStyle;rounded=0;orthogonalLoop=1;jettySize=auto;html=1;entryX=0.5;entryY=0;entryDx=0;entryDy=0;" edge="1" parent="1" source="J3GhAaIM8ZxZyjc3NXAG-5" target="J3GhAaIM8ZxZyjc3NXAG-8">
          <mxGeometry relative="1" as="geometry">
            <Array as="points">
              <mxPoint x="380" y="300" />
              <mxPoint x="460" y="300" />
            </Array>
          </mxGeometry>
        </mxCell>
        <mxCell id="J3GhAaIM8ZxZyjc3NXAG-19" style="edgeStyle=orthogonalEdgeStyle;rounded=0;orthogonalLoop=1;jettySize=auto;html=1;entryX=0.5;entryY=0;entryDx=0;entryDy=0;" edge="1" parent="1" source="J3GhAaIM8ZxZyjc3NXAG-5" target="J3GhAaIM8ZxZyjc3NXAG-7">
          <mxGeometry relative="1" as="geometry">
            <Array as="points">
              <mxPoint x="380" y="300" />
              <mxPoint x="240" y="300" />
            </Array>
          </mxGeometry>
        </mxCell>
        <mxCell id="J3GhAaIM8ZxZyjc3NXAG-5" value="Facade" style="swimlane;fontStyle=0;childLayout=stackLayout;horizontal=1;startSize=26;fillColor=none;horizontalStack=0;resizeParent=1;resizeParentMax=0;resizeLast=0;collapsible=1;marginBottom=0;whiteSpace=wrap;html=1;" vertex="1" parent="1">
          <mxGeometry x="310" y="150" width="140" height="52" as="geometry" />
        </mxCell>
        <mxCell id="J3GhAaIM8ZxZyjc3NXAG-13" style="edgeStyle=orthogonalEdgeStyle;rounded=0;orthogonalLoop=1;jettySize=auto;html=1;entryX=0.25;entryY=0;entryDx=0;entryDy=0;" edge="1" parent="1" source="J3GhAaIM8ZxZyjc3NXAG-7" target="J3GhAaIM8ZxZyjc3NXAG-9">
          <mxGeometry relative="1" as="geometry" />
        </mxCell>
        <mxCell id="J3GhAaIM8ZxZyjc3NXAG-17" style="edgeStyle=orthogonalEdgeStyle;rounded=0;orthogonalLoop=1;jettySize=auto;html=1;entryX=0.25;entryY=0;entryDx=0;entryDy=0;" edge="1" parent="1" source="J3GhAaIM8ZxZyjc3NXAG-7" target="J3GhAaIM8ZxZyjc3NXAG-10">
          <mxGeometry relative="1" as="geometry" />
        </mxCell>
        <mxCell id="J3GhAaIM8ZxZyjc3NXAG-7" value="" style="rounded=0;whiteSpace=wrap;html=1;" vertex="1" parent="1">
          <mxGeometry x="180" y="400" width="120" height="60" as="geometry" />
        </mxCell>
        <mxCell id="J3GhAaIM8ZxZyjc3NXAG-16" style="edgeStyle=orthogonalEdgeStyle;rounded=0;orthogonalLoop=1;jettySize=auto;html=1;entryX=0.25;entryY=0;entryDx=0;entryDy=0;" edge="1" parent="1" source="J3GhAaIM8ZxZyjc3NXAG-8" target="J3GhAaIM8ZxZyjc3NXAG-11">
          <mxGeometry relative="1" as="geometry" />
        </mxCell>
        <mxCell id="J3GhAaIM8ZxZyjc3NXAG-8" value="" style="rounded=0;whiteSpace=wrap;html=1;" vertex="1" parent="1">
          <mxGeometry x="400" y="400" width="120" height="60" as="geometry" />
        </mxCell>
        <mxCell id="J3GhAaIM8ZxZyjc3NXAG-14" style="edgeStyle=orthogonalEdgeStyle;rounded=0;orthogonalLoop=1;jettySize=auto;html=1;entryX=1;entryY=0.75;entryDx=0;entryDy=0;" edge="1" parent="1" source="J3GhAaIM8ZxZyjc3NXAG-9" target="J3GhAaIM8ZxZyjc3NXAG-10">
          <mxGeometry relative="1" as="geometry" />
        </mxCell>
        <mxCell id="J3GhAaIM8ZxZyjc3NXAG-15" style="edgeStyle=orthogonalEdgeStyle;rounded=0;orthogonalLoop=1;jettySize=auto;html=1;entryX=0;entryY=0.75;entryDx=0;entryDy=0;" edge="1" parent="1" source="J3GhAaIM8ZxZyjc3NXAG-9" target="J3GhAaIM8ZxZyjc3NXAG-11">
          <mxGeometry relative="1" as="geometry" />
        </mxCell>
        <mxCell id="J3GhAaIM8ZxZyjc3NXAG-9" value="" style="rounded=0;whiteSpace=wrap;html=1;" vertex="1" parent="1">
          <mxGeometry x="310" y="560" width="120" height="60" as="geometry" />
        </mxCell>
        <mxCell id="J3GhAaIM8ZxZyjc3NXAG-10" value="" style="rounded=0;whiteSpace=wrap;html=1;" vertex="1" parent="1">
          <mxGeometry x="120" y="650" width="120" height="60" as="geometry" />
        </mxCell>
        <mxCell id="J3GhAaIM8ZxZyjc3NXAG-11" value="" style="rounded=0;whiteSpace=wrap;html=1;" vertex="1" parent="1">
          <mxGeometry x="530" y="650" width="120" height="60" as="geometry" />
        </mxCell>
        <mxCell id="J3GhAaIM8ZxZyjc3NXAG-12" value="Hidden subsystem classes" style="rounded=0;whiteSpace=wrap;html=1;" vertex="1" parent="1">
          <mxGeometry x="70" y="310" width="160" height="30" as="geometry" />
        </mxCell>
        <mxCell id="J3GhAaIM8ZxZyjc3NXAG-21" value="&lt;i&gt;unified interface that&#39;s easier to use&lt;/i&gt;" style="text;html=1;align=center;verticalAlign=middle;resizable=0;points=[];autosize=1;strokeColor=none;fillColor=none;" vertex="1" parent="1">
          <mxGeometry x="365" y="108" width="210" height="30" as="geometry" />
        </mxCell>
      </root>
    </mxGraphModel>
  </diagram>
</mxfile>
